<?xml version="1.0" encoding="UTF-8" standalone="no"?>
<!DOCTYPE svg PUBLIC "-//W3C//DTD SVG 1.1//EN"
 "http://www.w3.org/Graphics/SVG/1.1/DTD/svg11.dtd">
<!-- Generated by graphviz version 12.1.2 (20240928.0832)
 -->
<!-- Title: NetworkTopology Pages: 1 -->
<svg width="1216pt" height="697pt"
 viewBox="14.40 14.40 1201.90 682.40" xmlns="http://www.w3.org/2000/svg" xmlns:xlink="http://www.w3.org/1999/xlink">
<g id="graph0" class="graph" transform="scale(1 1) rotate(0) translate(28.8 668)">
<title>NetworkTopology</title>
<polygon fill="white" stroke="none" points="-14.4,14.4 -14.4,-653.6 1173.1,-653.6 1173.1,14.4 -14.4,14.4"/>
<text text-anchor="middle" x="579.35" y="-624.4" font-family="Helvetica,sans-Serif" font-size="12.00">Azure Network Topology</text>
<text text-anchor="middle" x="579.35" y="-610" font-family="Helvetica,sans-Serif" font-size="12.00">example&#45;subscription&#45;12345 / full&#45;featured&#45;demo&#45;rg</text>
<g id="clust1" class="cluster">
<title>cluster_hub_vnet</title>
<polygon fill="#e6f3ff" stroke="lightblue" points="553.03,-336.2 553.03,-455.4 857.03,-455.4 857.03,-336.2 553.03,-336.2"/>
<text text-anchor="middle" x="705.03" y="-438.8" font-family="Helvetica,sans-Serif" font-weight="bold" font-size="14.00">VNet: hub&#45;vnet</text>
<text text-anchor="middle" x="705.03" y="-422" font-family="Helvetica,sans-Serif" font-weight="bold" font-size="14.00">10.0.0.0/16</text>
</g>
<g id="clust2" class="cluster">
<title>cluster_prod_vnet</title>
<polygon fill="#e6f3ff" stroke="lightblue" points="9.03,-336.2 9.03,-455.4 516.03,-455.4 516.03,-336.2 9.03,-336.2"/>
<text text-anchor="middle" x="262.53" y="-438.8" font-family="Helvetica,sans-Serif" font-weight="bold" font-size="14.00">VNet: prod&#45;vnet</text>
<text text-anchor="middle" x="262.53" y="-422" font-family="Helvetica,sans-Serif" font-weight="bold" font-size="14.00">10.1.0.0/16</text>
</g>
<!-- vnet_0 -->
<g id="node1" class="node">
<title>vnet_0</title>
<polygon fill="#d0e7ff" stroke="black" stroke-width="2" points="857.36,-372.2 798.7,-372.2 798.7,-336.2 857.36,-336.2 857.36,-372.2"/>
<text text-anchor="middle" x="828.03" y="-350.6" font-family="Helvetica,sans-Serif" font-weight="bold" font-size="12.00">hub&#45;vnet</text>
</g>
<!-- vnet_1 -->
<g id="node4" class="node">
<title>vnet_1</title>
<polygon fill="#d0e7ff" stroke="black" stroke-width="2" points="377.36,-372.2 314.7,-372.2 314.7,-336.2 377.36,-336.2 377.36,-372.2"/>
<text text-anchor="middle" x="346.03" y="-350.6" font-family="Helvetica,sans-Serif" font-weight="bold" font-size="12.00">prod&#45;vnet</text>
</g>
<!-- vnet_0&#45;&gt;vnet_1 -->
<g id="edge8" class="edge">
<title>vnet_0&#45;&gt;vnet_1</title>
<path fill="none" stroke="green" stroke-dasharray="5,2" d="M804.85,-324.27C804.85,-324.27 804.85,-303.2 804.85,-303.2 804.85,-303.2 346.03,-303.2 346.03,-303.2 346.03,-303.2 346.03,-324.27 346.03,-324.27"/>
<polygon fill="green" stroke="green" points="801.35,-324.27 804.85,-334.27 808.35,-324.27 801.35,-324.27"/>
<polygon fill="green" stroke="green" points="342.53,-324.27 346.03,-334.27 349.53,-324.27 342.53,-324.27"/>
<text text-anchor="middle" x="506.03" y="-478.4" font-family="Helvetica,sans-Serif" font-size="10.00">peering</text>
<text text-anchor="middle" x="506.03" y="-466.4" font-family="Helvetica,sans-Serif" font-size="10.00">Connected</text>
</g>
<!-- subnet_0_0 -->
<g id="node2" class="node">
<title>subnet_0_0</title>
<polygon fill="#ffb6c1" stroke="black" points="762.61,-372.2 675.45,-372.2 675.45,-336.2 762.61,-336.2 762.61,-372.2"/>
<text text-anchor="middle" x="719.03" y="-357.2" font-family="Helvetica,sans-Serif" font-size="10.00">GatewaySubnet</text>
<text text-anchor="middle" x="719.03" y="-345.2" font-family="Helvetica,sans-Serif" font-size="10.00">10.0.0.0/27</text>
</g>
<!-- subnet_0_1 -->
<g id="node3" class="node">
<title>subnet_0_1</title>
<polygon fill="#90ee90" stroke="black" points="639.32,-372.2 552.74,-372.2 552.74,-336.2 639.32,-336.2 639.32,-372.2"/>
<text text-anchor="middle" x="596.03" y="-357.2" font-family="Helvetica,sans-Serif" font-size="10.00">shared&#45;services</text>
<text text-anchor="middle" x="596.03" y="-345.2" font-family="Helvetica,sans-Serif" font-size="10.00">10.0.1.0/24</text>
</g>
<!-- rt_firewall_rt -->
<g id="node11" class="node">
<title>rt_firewall_rt</title>
<polygon fill="#dda0dd" stroke="black" points="669.1,-262.6 552.86,-262.6 522.96,-198.6 639.2,-198.6 669.1,-262.6"/>
<text text-anchor="middle" x="596.03" y="-233.6" font-family="Helvetica,sans-Serif" font-size="10.00">Route Table</text>
<text text-anchor="middle" x="596.03" y="-221.6" font-family="Helvetica,sans-Serif" font-size="10.00">firewall&#45;rt</text>
</g>
<!-- subnet_0_1&#45;&gt;rt_firewall_rt -->
<g id="edge2" class="edge">
<title>subnet_0_1&#45;&gt;rt_firewall_rt</title>
<path fill="none" stroke="purple" stroke-dasharray="1,5" d="M596.03,-335.96C596.03,-335.96 596.03,-274.35 596.03,-274.35"/>
<polygon fill="purple" stroke="purple" points="599.53,-274.35 596.03,-264.35 592.53,-274.35 599.53,-274.35"/>
<text text-anchor="middle" x="609.93" y="-300.2" font-family="Helvetica,sans-Serif" font-size="10.00">routes</text>
</g>
<!-- vnet_1&#45;&gt;vnet_0 -->
<g id="edge9" class="edge">
<title>vnet_1&#45;&gt;vnet_0</title>
<text text-anchor="middle" x="383" y="-478.4" font-family="Helvetica,sans-Serif" font-size="10.00">peering</text>
<text text-anchor="middle" x="383" y="-466.4" font-family="Helvetica,sans-Serif" font-size="10.00">Connected</text>
</g>
<!-- subnet_1_0 -->
<g id="node5" class="node">
<title>subnet_1_0</title>
<polygon fill="#90ee90" stroke="black" points="279.05,-372.2 213.01,-372.2 213.01,-336.2 279.05,-336.2 279.05,-372.2"/>
<text text-anchor="middle" x="246.03" y="-357.2" font-family="Helvetica,sans-Serif" font-size="10.00">web&#45;tier</text>
<text text-anchor="middle" x="246.03" y="-345.2" font-family="Helvetica,sans-Serif" font-size="10.00">10.1.1.0/24</text>
</g>
<!-- nat_prod_nat_gateway -->
<g id="node12" class="node">
<title>nat_prod_nat_gateway</title>
<polygon fill="#98fb98" stroke="black" points="195.03,-262.6 101.21,-230.6 195.03,-198.6 288.85,-230.6 195.03,-262.6"/>
<text text-anchor="middle" x="195.03" y="-233.6" font-family="Helvetica,sans-Serif" font-size="10.00">NAT Gateway</text>
<text text-anchor="middle" x="195.03" y="-221.6" font-family="Helvetica,sans-Serif" font-size="10.00">prod&#45;nat&#45;gateway</text>
</g>
<!-- subnet_1_0&#45;&gt;nat_prod_nat_gateway -->
<g id="edge4" class="edge">
<title>subnet_1_0&#45;&gt;nat_prod_nat_gateway</title>
<path fill="none" stroke="green" d="M246.03,-335.96C246.03,-335.96 246.03,-256.93 246.03,-256.93"/>
<polygon fill="green" stroke="green" points="249.53,-256.93 246.03,-246.93 242.53,-256.93 249.53,-256.93"/>
<text text-anchor="middle" x="253.04" y="-300.2" font-family="Helvetica,sans-Serif" font-size="10.00">egress</text>
</g>
<!-- subnet_1_1 -->
<g id="node6" class="node">
<title>subnet_1_1</title>
<polygon fill="#90ee90" stroke="black" points="177.05,-372.2 111.01,-372.2 111.01,-336.2 177.05,-336.2 177.05,-372.2"/>
<text text-anchor="middle" x="144.03" y="-357.2" font-family="Helvetica,sans-Serif" font-size="10.00">app&#45;tier</text>
<text text-anchor="middle" x="144.03" y="-345.2" font-family="Helvetica,sans-Serif" font-size="10.00">10.1.2.0/24</text>
</g>
<!-- subnet_1_1&#45;&gt;nat_prod_nat_gateway -->
<g id="edge6" class="edge">
<title>subnet_1_1&#45;&gt;nat_prod_nat_gateway</title>
<path fill="none" stroke="green" d="M144.03,-335.96C144.03,-335.96 144.03,-256.93 144.03,-256.93"/>
<polygon fill="green" stroke="green" points="147.53,-256.93 144.03,-246.93 140.53,-256.93 147.53,-256.93"/>
<text text-anchor="middle" x="167.04" y="-300.2" font-family="Helvetica,sans-Serif" font-size="10.00">egress</text>
</g>
<!-- subnet_1_2 -->
<g id="node7" class="node">
<title>subnet_1_2</title>
<polygon fill="#90ee90" stroke="black" points="75.05,-372.2 9.01,-372.2 9.01,-336.2 75.05,-336.2 75.05,-372.2"/>
<text text-anchor="middle" x="42.03" y="-357.2" font-family="Helvetica,sans-Serif" font-size="10.00">data&#45;tier</text>
<text text-anchor="middle" x="42.03" y="-345.2" font-family="Helvetica,sans-Serif" font-size="10.00">10.1.3.0/24</text>
</g>
<!-- subnet_1_3 -->
<g id="node8" class="node">
<title>subnet_1_3</title>
<polygon fill="#ffb6c1" stroke="black" points="516.38,-372.2 413.68,-372.2 413.68,-336.2 516.38,-336.2 516.38,-372.2"/>
<text text-anchor="middle" x="465.03" y="-357.2" font-family="Helvetica,sans-Serif" font-size="10.00">private&#45;links&#45;subnet</text>
<text text-anchor="middle" x="465.03" y="-345.2" font-family="Helvetica,sans-Serif" font-size="10.00">10.1.4.0/24</text>
</g>
<!-- nsg_web_nsg -->
<g id="node9" class="node">
<title>nsg_web_nsg</title>
<polygon fill="#ffe4b5" stroke="black" points="287.21,-548.25 287.21,-568.54 263.09,-582.89 228.98,-582.89 204.86,-568.54 204.86,-548.25 228.98,-533.9 263.09,-533.9 287.21,-548.25"/>
<text text-anchor="middle" x="246.03" y="-561.4" font-family="Helvetica,sans-Serif" font-size="10.00">NSG</text>
<text text-anchor="middle" x="246.03" y="-549.4" font-family="Helvetica,sans-Serif" font-size="10.00">web&#45;nsg</text>
</g>
<!-- nsg_web_nsg&#45;&gt;subnet_0_1 -->
<g id="edge1" class="edge">
<title>nsg_web_nsg&#45;&gt;subnet_0_1</title>
<path fill="none" stroke="orange" stroke-dasharray="5,2" d="M287.55,-558.4C380.27,-558.4 596.03,-558.4 596.03,-558.4 596.03,-558.4 596.03,-384.19 596.03,-384.19"/>
<polygon fill="orange" stroke="orange" points="599.53,-384.19 596.03,-374.19 592.53,-384.19 599.53,-384.19"/>
<text text-anchor="middle" x="593.82" y="-472.4" font-family="Helvetica,sans-Serif" font-size="10.00">protects</text>
</g>
<!-- nsg_web_nsg&#45;&gt;subnet_1_0 -->
<g id="edge3" class="edge">
<title>nsg_web_nsg&#45;&gt;subnet_1_0</title>
<path fill="none" stroke="orange" stroke-dasharray="5,2" d="M246.03,-533.76C246.03,-533.76 246.03,-384.11 246.03,-384.11"/>
<polygon fill="orange" stroke="orange" points="249.53,-384.11 246.03,-374.11 242.53,-384.11 249.53,-384.11"/>
<text text-anchor="middle" x="263.82" y="-472.4" font-family="Helvetica,sans-Serif" font-size="10.00">protects</text>
</g>
<!-- nsg_web_nsg&#45;&gt;subnet_1_1 -->
<g id="edge5" class="edge">
<title>nsg_web_nsg&#45;&gt;subnet_1_1</title>
<path fill="none" stroke="orange" stroke-dasharray="5,2" d="M208.93,-545.31C208.93,-500.24 208.93,-354.2 208.93,-354.2 208.93,-354.2 188.76,-354.2 188.76,-354.2"/>
<polygon fill="orange" stroke="orange" points="188.76,-350.7 178.76,-354.2 188.76,-357.7 188.76,-350.7"/>
<text text-anchor="middle" x="173.82" y="-472.4" font-family="Helvetica,sans-Serif" font-size="10.00">protects</text>
</g>
<!-- nsg_data_nsg -->
<g id="node10" class="node">
<title>nsg_data_nsg</title>
<polygon fill="#ffe4b5" stroke="black" points="84.06,-548.25 84.06,-568.54 59.44,-582.89 24.62,-582.89 0,-568.54 0,-548.25 24.62,-533.9 59.44,-533.9 84.06,-548.25"/>
<text text-anchor="middle" x="42.03" y="-561.4" font-family="Helvetica,sans-Serif" font-size="10.00">NSG</text>
<text text-anchor="middle" x="42.03" y="-549.4" font-family="Helvetica,sans-Serif" font-size="10.00">data&#45;nsg</text>
</g>
<!-- nsg_data_nsg&#45;&gt;subnet_1_2 -->
<g id="edge7" class="edge">
<title>nsg_data_nsg&#45;&gt;subnet_1_2</title>
<path fill="none" stroke="orange" stroke-dasharray="5,2" d="M42.03,-533.76C42.03,-533.76 42.03,-384.11 42.03,-384.11"/>
<polygon fill="orange" stroke="orange" points="45.53,-384.11 42.03,-374.11 38.53,-384.11 45.53,-384.11"/>
<text text-anchor="middle" x="59.82" y="-472.4" font-family="Helvetica,sans-Serif" font-size="10.00">protects</text>
</g>
<!-- lb_0 -->
<g id="node13" class="node">
<title>lb_0</title>
<ellipse fill="#ffa500" stroke="black" cx="758.03" cy="-230.6" rx="52.97" ry="31.11"/>
<text text-anchor="middle" x="758.03" y="-239.6" font-family="Helvetica,sans-Serif" font-size="10.00">LB</text>
<text text-anchor="middle" x="758.03" y="-227.6" font-family="Helvetica,sans-Serif" font-size="10.00">web&#45;lb&#45;public</text>
<text text-anchor="middle" x="758.03" y="-215.6" font-family="Helvetica,sans-Serif" font-size="10.00">Standard</text>
</g>
<!-- lb_1 -->
<g id="node14" class="node">
<title>lb_1</title>
<ellipse fill="#ffa500" stroke="black" cx="903.03" cy="-230.6" rx="56.52" ry="31.11"/>
<text text-anchor="middle" x="903.03" y="-239.6" font-family="Helvetica,sans-Serif" font-size="10.00">LB</text>
<text text-anchor="middle" x="903.03" y="-227.6" font-family="Helvetica,sans-Serif" font-size="10.00">app&#45;lb&#45;internal</text>
<text text-anchor="middle" x="903.03" y="-215.6" font-family="Helvetica,sans-Serif" font-size="10.00">Standard</text>
</g>
<!-- appgw_0 -->
<g id="node15" class="node">
<title>appgw_0</title>
<ellipse fill="#ff69b4" stroke="black" cx="1077.03" cy="-230.6" rx="81.67" ry="39.6"/>
<text text-anchor="middle" x="1077.03" y="-245.6" font-family="Helvetica,sans-Serif" font-size="10.00">AppGW</text>
<text text-anchor="middle" x="1077.03" y="-233.6" font-family="Helvetica,sans-Serif" font-size="10.00">prod&#45;app&#45;gateway&#45;waf</text>
<text text-anchor="middle" x="1077.03" y="-221.6" font-family="Helvetica,sans-Serif" font-size="10.00">WAF_v2</text>
<text text-anchor="middle" x="1077.03" y="-209.6" font-family="Helvetica,sans-Serif" font-size="10.00">[WAF Enabled]</text>
</g>
<!-- vpn_0 -->
<g id="node16" class="node">
<title>vpn_0</title>
<polygon fill="#9370db" stroke="black" points="828.03,-602.4 735.32,-558.4 828.03,-514.4 920.74,-558.4 828.03,-602.4"/>
<text text-anchor="middle" x="828.03" y="-567.4" font-family="Helvetica,sans-Serif" font-size="10.00">VPN GW</text>
<text text-anchor="middle" x="828.03" y="-555.4" font-family="Helvetica,sans-Serif" font-size="10.00">hub&#45;vpn&#45;gateway</text>
<text text-anchor="middle" x="828.03" y="-543.4" font-family="Helvetica,sans-Serif" font-size="10.00">VpnGw2</text>
</g>
<!-- vpn_0&#45;&gt;vnet_0 -->
<g id="edge10" class="edge">
<title>vpn_0&#45;&gt;vnet_0</title>
<path fill="none" stroke="purple" stroke-width="2" d="M828.03,-514.09C828.03,-514.09 828.03,-383.72 828.03,-383.72"/>
<polygon fill="purple" stroke="purple" stroke-width="2" points="831.53,-385.24 828.03,-375.24 824.53,-385.24 831.53,-385.24"/>
<text text-anchor="middle" x="846.65" y="-472.4" font-family="Helvetica,sans-Serif" font-size="10.00">gateway</text>
</g>
<!-- legend -->
<g id="node17" class="node">
<title>legend</title>
<polygon fill="lightgrey" stroke="none" points="260.53,-164 129.53,-164 129.53,0 260.53,0 260.53,-164"/>
<polygon fill="#f0f0f0" stroke="none" points="137.53,-4 137.53,-160 252.53,-160 252.53,-4 137.53,-4"/>
<polygon fill="#d0d0d0" stroke="none" points="138.53,-137 138.53,-159 251.53,-159 251.53,-137 138.53,-137"/>
<polygon fill="none" stroke="black" points="138.53,-137 138.53,-159 251.53,-159 251.53,-137 138.53,-137"/>
<text text-anchor="start" x="177.25" y="-146" font-family="Helvetica,sans-Serif" font-weight="bold" font-size="10.00">Legend</text>
<polygon fill="#90ee90" stroke="none" points="138.53,-115 138.53,-137 158.53,-137 158.53,-115 138.53,-115"/>
<polygon fill="none" stroke="black" points="138.53,-115 138.53,-137 158.53,-137 158.53,-115 138.53,-115"/>
<text text-anchor="start" x="145.75" y="-123" font-family="Helvetica,sans-Serif" font-size="10.00"> &#160;</text>
<polygon fill="none" stroke="black" points="158.53,-115 158.53,-137 251.53,-137 251.53,-115 158.53,-115"/>
<text text-anchor="start" x="163.35" y="-123" font-family="Helvetica,sans-Serif" font-size="10.00">Subnet (with NSG)</text>
<polygon fill="#ffb6c1" stroke="none" points="138.53,-93 138.53,-115 158.53,-115 158.53,-93 138.53,-93"/>
<polygon fill="none" stroke="black" points="138.53,-93 138.53,-115 158.53,-115 158.53,-93 138.53,-93"/>
<text text-anchor="start" x="145.75" y="-101" font-family="Helvetica,sans-Serif" font-size="10.00"> &#160;</text>
<polygon fill="none" stroke="black" points="158.53,-93 158.53,-115 251.53,-115 251.53,-93 158.53,-93"/>
<text text-anchor="start" x="163.53" y="-101" font-family="Helvetica,sans-Serif" font-size="10.00">Subnet (no NSG)</text>
<polygon fill="#ffe4b5" stroke="none" points="138.53,-71 138.53,-93 158.53,-93 158.53,-71 138.53,-71"/>
<polygon fill="none" stroke="black" points="138.53,-71 138.53,-93 158.53,-93 158.53,-71 138.53,-71"/>
<text text-anchor="start" x="145.75" y="-79" font-family="Helvetica,sans-Serif" font-size="10.00"> &#160;</text>
<polygon fill="none" stroke="black" points="158.53,-71 158.53,-93 251.53,-93 251.53,-71 158.53,-71"/>
<text text-anchor="start" x="163.53" y="-79" font-family="Helvetica,sans-Serif" font-size="10.00">NSG</text>
<polygon fill="#dda0dd" stroke="none" points="138.53,-49 138.53,-71 158.53,-71 158.53,-49 138.53,-49"/>
<polygon fill="none" stroke="black" points="138.53,-49 138.53,-71 158.53,-71 158.53,-49 138.53,-49"/>
<text text-anchor="start" x="145.75" y="-57" font-family="Helvetica,sans-Serif" font-size="10.00"> &#160;</text>
<polygon fill="none" stroke="black" points="158.53,-49 158.53,-71 251.53,-71 251.53,-49 158.53,-49"/>
<text text-anchor="start" x="163.53" y="-57" font-family="Helvetica,sans-Serif" font-size="10.00">Route Table</text>
<polygon fill="#9370db" stroke="none" points="138.53,-27 138.53,-49 158.53,-49 158.53,-27 138.53,-27"/>
<polygon fill="none" stroke="black" points="138.53,-27 138.53,-49 158.53,-49 158.53,-27 138.53,-27"/>
<text text-anchor="start" x="145.75" y="-35" font-family="Helvetica,sans-Serif" font-size="10.00"> &#160;</text>
<polygon fill="none" stroke="black" points="158.53,-27 158.53,-49 251.53,-49 251.53,-27 158.53,-27"/>
<text text-anchor="start" x="163.53" y="-35" font-family="Helvetica,sans-Serif" font-size="10.00">VPN Gateway</text>
<polygon fill="#ffa500" stroke="none" points="138.53,-5 138.53,-27 158.53,-27 158.53,-5 138.53,-5"/>
<polygon fill="none" stroke="black" points="138.53,-5 138.53,-27 158.53,-27 158.53,-5 138.53,-5"/>
<text text-anchor="start" x="145.75" y="-13" font-family="Helvetica,sans-Serif" font-size="10.00"> &#160;</text>
<polygon fill="none" stroke="black" points="158.53,-5 158.53,-27 251.53,-27 251.53,-5 158.53,-5"/>
<text text-anchor="start" x="163.53" y="-13" font-family="Helvetica,sans-Serif" font-size="10.00">Load Balancer</text>
<polygon fill="none" stroke="black" points="137.53,-4 137.53,-160 252.53,-160 252.53,-4 137.53,-4"/>
</g>
<!-- pe_table -->
<g id="node18" class="node">
<title>pe_table</title>
<polygon fill="lightgrey" stroke="none" points="681.53,-132 404.53,-132 404.53,-32 681.53,-32 681.53,-132"/>
<polygon fill="#ffb6c1" stroke="none" points="413.53,-106 413.53,-127 672.53,-127 672.53,-106 413.53,-106"/>
<polygon fill="none" stroke="black" points="413.53,-106 413.53,-127 672.53,-127 672.53,-106 413.53,-106"/>
<text text-anchor="start" x="496.27" y="-114.1" font-family="Helvetica,sans-Serif" font-weight="bold" font-size="11.00">Private Endpoints</text>
<polygon fill="#ffe4e1" stroke="none" points="413.53,-88 413.53,-106 461.53,-106 461.53,-88 413.53,-88"/>
<polygon fill="none" stroke="black" points="413.53,-88 413.53,-106 461.53,-106 461.53,-88 413.53,-88"/>
<text text-anchor="start" x="425.27" y="-94.9" font-family="Helvetica,sans-Serif" font-weight="bold" font-size="9.00">Name</text>
<polygon fill="#ffe4e1" stroke="none" points="461.53,-88 461.53,-106 531.53,-106 531.53,-88 461.53,-88"/>
<polygon fill="none" stroke="black" points="461.53,-88 461.53,-106 531.53,-106 531.53,-88 461.53,-88"/>
<text text-anchor="start" x="465.51" y="-94.9" font-family="Helvetica,sans-Serif" font-weight="bold" font-size="9.00">Target Service</text>
<polygon fill="#ffe4e1" stroke="none" points="531.53,-88 531.53,-106 581.53,-106 581.53,-88 531.53,-88"/>
<polygon fill="none" stroke="black" points="531.53,-88 531.53,-106 581.53,-106 581.53,-88 531.53,-88"/>
<text text-anchor="start" x="541.28" y="-94.9" font-family="Helvetica,sans-Serif" font-weight="bold" font-size="9.00">Subnet</text>
<polygon fill="#ffe4e1" stroke="none" points="581.53,-88 581.53,-106 630.53,-106 630.53,-88 581.53,-88"/>
<polygon fill="none" stroke="black" points="581.53,-88 581.53,-106 630.53,-106 630.53,-88 581.53,-88"/>
<text text-anchor="start" x="585.52" y="-94.9" font-family="Helvetica,sans-Serif" font-weight="bold" font-size="9.00">Private IP</text>
<polygon fill="#ffe4e1" stroke="none" points="630.53,-88 630.53,-106 672.53,-106 672.53,-88 630.53,-88"/>
<polygon fill="none" stroke="black" points="630.53,-88 630.53,-106 672.53,-106 672.53,-88 630.53,-88"/>
<text text-anchor="start" x="637.78" y="-94.9" font-family="Helvetica,sans-Serif" font-weight="bold" font-size="9.00">Status</text>
<polygon fill="none" stroke="black" points="413.53,-71 413.53,-88 461.53,-88 461.53,-71 413.53,-71"/>
<text text-anchor="start" x="417.53" y="-76.8" font-family="Helvetica,sans-Serif" font-size="8.00">storage&#45;pe</text>
<polygon fill="none" stroke="black" points="461.53,-71 461.53,-88 531.53,-88 531.53,-71 461.53,-71"/>
<text text-anchor="start" x="465.53" y="-76.8" font-family="Helvetica,sans-Serif" font-size="8.00">prodstorage</text>
<polygon fill="none" stroke="black" points="531.53,-71 531.53,-88 581.53,-88 581.53,-71 531.53,-71"/>
<text text-anchor="start" x="535.19" y="-76.8" font-family="Helvetica,sans-Serif" font-size="8.00">private&#45;links</text>
<polygon fill="none" stroke="black" points="581.53,-71 581.53,-88 630.53,-88 630.53,-71 581.53,-71"/>
<text text-anchor="start" x="585.53" y="-76.8" font-family="Helvetica,sans-Serif" font-size="8.00">10.1.4.10</text>
<polygon fill="none" stroke="black" points="630.53,-71 630.53,-88 672.53,-88 672.53,-71 630.53,-71"/>
<text text-anchor="start" x="634.41" y="-76.8" font-family="Helvetica,sans-Serif" font-size="8.00">Approved</text>
<polygon fill="none" stroke="black" points="413.53,-54 413.53,-71 461.53,-71 461.53,-54 413.53,-54"/>
<text text-anchor="start" x="417.53" y="-59.8" font-family="Helvetica,sans-Serif" font-size="8.00">sql&#45;pe</text>
<polygon fill="none" stroke="black" points="461.53,-54 461.53,-71 531.53,-71 531.53,-54 461.53,-54"/>
<text text-anchor="start" x="465.53" y="-59.8" font-family="Helvetica,sans-Serif" font-size="8.00">prodsql</text>
<polygon fill="none" stroke="black" points="531.53,-54 531.53,-71 581.53,-71 581.53,-54 531.53,-54"/>
<text text-anchor="start" x="535.19" y="-59.8" font-family="Helvetica,sans-Serif" font-size="8.00">private&#45;links</text>
<polygon fill="none" stroke="black" points="581.53,-54 581.53,-71 630.53,-71 630.53,-54 581.53,-54"/>
<text text-anchor="start" x="585.53" y="-59.8" font-family="Helvetica,sans-Serif" font-size="8.00">10.1.4.11</text>
<polygon fill="none" stroke="black" points="630.53,-54 630.53,-71 672.53,-71 672.53,-54 630.53,-54"/>
<text text-anchor="start" x="634.41" y="-59.8" font-family="Helvetica,sans-Serif" font-size="8.00">Approved</text>
<polygon fill="none" stroke="black" points="413.53,-37 413.53,-54 461.53,-54 461.53,-37 413.53,-37"/>
<text text-anchor="start" x="417.08" y="-42.8" font-family="Helvetica,sans-Serif" font-size="8.00">keyvault&#45;pe</text>
<polygon fill="none" stroke="black" points="461.53,-37 461.53,-54 531.53,-54 531.53,-37 461.53,-37"/>
<text text-anchor="start" x="465.53" y="-42.8" font-family="Helvetica,sans-Serif" font-size="8.00">prodkv</text>
<polygon fill="none" stroke="black" points="531.53,-37 531.53,-54 581.53,-54 581.53,-37 531.53,-37"/>
<text text-anchor="start" x="535.19" y="-42.8" font-family="Helvetica,sans-Serif" font-size="8.00">private&#45;links</text>
<polygon fill="none" stroke="black" points="581.53,-37 581.53,-54 630.53,-54 630.53,-37 581.53,-37"/>
<text text-anchor="start" x="585.53" y="-42.8" font-family="Helvetica,sans-Serif" font-size="8.00">10.1.4.12</text>
<polygon fill="none" stroke="black" points="630.53,-37 630.53,-54 672.53,-54 672.53,-37 630.53,-37"/>
<text text-anchor="start" x="634.41" y="-42.8" font-family="Helvetica,sans-Serif" font-size="8.00">Approved</text>
<polygon fill="none" stroke="black" points="412.53,-36 412.53,-128 673.53,-128 673.53,-36 412.53,-36"/>
</g>
<!-- legend&#45;&gt;pe_table -->
</g>
</svg>
