<?xml version="1.0" encoding="UTF-8" standalone="no"?>
<!DOCTYPE svg PUBLIC "-//W3C//DTD SVG 1.1//EN"
 "http://www.w3.org/Graphics/SVG/1.1/DTD/svg11.dtd">
<!-- Generated by graphviz version 12.1.2 (20240928.0832)
 -->
<!-- Title: NetworkTopology Pages: 1 -->
<svg width="933pt" height="420pt"
 viewBox="14.40 14.40 919.01 405.20" xmlns="http://www.w3.org/2000/svg" xmlns:xlink="http://www.w3.org/1999/xlink">
<g id="graph0" class="graph" transform="scale(1 1) rotate(0) translate(28.8 390.8)">
<title>NetworkTopology</title>
<polygon fill="white" stroke="none" points="-14.4,14.4 -14.4,-376.4 890.21,-376.4 890.21,14.4 -14.4,14.4"/>
<text text-anchor="middle" x="437.91" y="-347.2" font-family="Helvetica,sans-Serif" font-size="12.00">Azure Network Topology</text>
<text text-anchor="middle" x="437.91" y="-332.8" font-family="Helvetica,sans-Serif" font-size="12.00">example&#45;subscription&#45;12345 / load&#45;balancer&#45;demo&#45;rg</text>
<g id="clust1" class="cluster">
<title>cluster_app_vnet</title>
<polygon fill="#e6f3ff" stroke="lightblue" points="36.5,-239.6 36.5,-317.2 412.5,-317.2 412.5,-239.6 36.5,-239.6"/>
<text text-anchor="middle" x="224.5" y="-300.6" font-family="Helvetica,sans-Serif" font-weight="bold" font-size="14.00">VNet: app&#45;vnet</text>
<text text-anchor="middle" x="224.5" y="-283.8" font-family="Helvetica,sans-Serif" font-weight="bold" font-size="14.00">10.0.0.0/16</text>
</g>
<!-- vnet_0 -->
<g id="node1" class="node">
<title>vnet_0</title>
<polygon fill="#d0e7ff" stroke="black" stroke-width="2" points="94.49,-275.6 36.51,-275.6 36.51,-239.6 94.49,-239.6 94.49,-275.6"/>
<text text-anchor="middle" x="65.5" y="-254" font-family="Helvetica,sans-Serif" font-weight="bold" font-size="12.00">app&#45;vnet</text>
</g>
<!-- subnet_0_0 -->
<g id="node2" class="node">
<title>subnet_0_0</title>
<polygon fill="#ffb6c1" stroke="black" points="196.52,-275.6 130.48,-275.6 130.48,-239.6 196.52,-239.6 196.52,-275.6"/>
<text text-anchor="middle" x="163.5" y="-260.6" font-family="Helvetica,sans-Serif" font-size="10.00">web&#45;tier</text>
<text text-anchor="middle" x="163.5" y="-248.6" font-family="Helvetica,sans-Serif" font-size="10.00">10.0.1.0/24</text>
</g>
<!-- subnet_0_1 -->
<g id="node3" class="node">
<title>subnet_0_1</title>
<polygon fill="#ffb6c1" stroke="black" points="298.52,-275.6 232.48,-275.6 232.48,-239.6 298.52,-239.6 298.52,-275.6"/>
<text text-anchor="middle" x="265.5" y="-260.6" font-family="Helvetica,sans-Serif" font-size="10.00">app&#45;tier</text>
<text text-anchor="middle" x="265.5" y="-248.6" font-family="Helvetica,sans-Serif" font-size="10.00">10.0.2.0/24</text>
</g>
<!-- subnet_0_2 -->
<g id="node4" class="node">
<title>subnet_0_2</title>
<polygon fill="#ffb6c1" stroke="black" points="412.91,-275.6 334.09,-275.6 334.09,-239.6 412.91,-239.6 412.91,-275.6"/>
<text text-anchor="middle" x="373.5" y="-260.6" font-family="Helvetica,sans-Serif" font-size="10.00">appgw&#45;subnet</text>
<text text-anchor="middle" x="373.5" y="-248.6" font-family="Helvetica,sans-Serif" font-size="10.00">10.0.3.0/24</text>
</g>
<!-- lb_0 -->
<g id="node5" class="node">
<title>lb_0</title>
<ellipse fill="#ffa500" stroke="black" cx="501.5" cy="-257.6" rx="52.97" ry="31.11"/>
<text text-anchor="middle" x="501.5" y="-266.6" font-family="Helvetica,sans-Serif" font-size="10.00">LB</text>
<text text-anchor="middle" x="501.5" y="-254.6" font-family="Helvetica,sans-Serif" font-size="10.00">public&#45;web&#45;lb</text>
<text text-anchor="middle" x="501.5" y="-242.6" font-family="Helvetica,sans-Serif" font-size="10.00">Standard</text>
</g>
<!-- lb_1 -->
<g id="node6" class="node">
<title>lb_1</title>
<ellipse fill="#ffa500" stroke="black" cx="646.5" cy="-257.6" rx="56.52" ry="31.11"/>
<text text-anchor="middle" x="646.5" y="-266.6" font-family="Helvetica,sans-Serif" font-size="10.00">LB</text>
<text text-anchor="middle" x="646.5" y="-254.6" font-family="Helvetica,sans-Serif" font-size="10.00">internal&#45;app&#45;lb</text>
<text text-anchor="middle" x="646.5" y="-242.6" font-family="Helvetica,sans-Serif" font-size="10.00">Standard</text>
</g>
<!-- appgw_0 -->
<g id="node7" class="node">
<title>appgw_0</title>
<ellipse fill="#ff69b4" stroke="black" cx="807.5" cy="-257.6" rx="68.31" ry="39.6"/>
<text text-anchor="middle" x="807.5" y="-272.6" font-family="Helvetica,sans-Serif" font-size="10.00">AppGW</text>
<text text-anchor="middle" x="807.5" y="-260.6" font-family="Helvetica,sans-Serif" font-size="10.00">prod&#45;app&#45;gateway</text>
<text text-anchor="middle" x="807.5" y="-248.6" font-family="Helvetica,sans-Serif" font-size="10.00">WAF_v2</text>
<text text-anchor="middle" x="807.5" y="-236.6" font-family="Helvetica,sans-Serif" font-size="10.00">[WAF Enabled]</text>
</g>
<!-- legend -->
<g id="node8" class="node">
<title>legend</title>
<polygon fill="lightgrey" stroke="none" points="131,-164 0,-164 0,0 131,0 131,-164"/>
<polygon fill="#f0f0f0" stroke="none" points="8,-4 8,-160 123,-160 123,-4 8,-4"/>
<polygon fill="#d0d0d0" stroke="none" points="9,-137 9,-159 122,-159 122,-137 9,-137"/>
<polygon fill="none" stroke="black" points="9,-137 9,-159 122,-159 122,-137 9,-137"/>
<text text-anchor="start" x="47.72" y="-146" font-family="Helvetica,sans-Serif" font-weight="bold" font-size="10.00">Legend</text>
<polygon fill="#90ee90" stroke="none" points="9,-115 9,-137 29,-137 29,-115 9,-115"/>
<polygon fill="none" stroke="black" points="9,-115 9,-137 29,-137 29,-115 9,-115"/>
<text text-anchor="start" x="16.22" y="-123" font-family="Helvetica,sans-Serif" font-size="10.00"> &#160;</text>
<polygon fill="none" stroke="black" points="29,-115 29,-137 122,-137 122,-115 29,-115"/>
<text text-anchor="start" x="33.82" y="-123" font-family="Helvetica,sans-Serif" font-size="10.00">Subnet (with NSG)</text>
<polygon fill="#ffb6c1" stroke="none" points="9,-93 9,-115 29,-115 29,-93 9,-93"/>
<polygon fill="none" stroke="black" points="9,-93 9,-115 29,-115 29,-93 9,-93"/>
<text text-anchor="start" x="16.22" y="-101" font-family="Helvetica,sans-Serif" font-size="10.00"> &#160;</text>
<polygon fill="none" stroke="black" points="29,-93 29,-115 122,-115 122,-93 29,-93"/>
<text text-anchor="start" x="34" y="-101" font-family="Helvetica,sans-Serif" font-size="10.00">Subnet (no NSG)</text>
<polygon fill="#ffe4b5" stroke="none" points="9,-71 9,-93 29,-93 29,-71 9,-71"/>
<polygon fill="none" stroke="black" points="9,-71 9,-93 29,-93 29,-71 9,-71"/>
<text text-anchor="start" x="16.22" y="-79" font-family="Helvetica,sans-Serif" font-size="10.00"> &#160;</text>
<polygon fill="none" stroke="black" points="29,-71 29,-93 122,-93 122,-71 29,-71"/>
<text text-anchor="start" x="34" y="-79" font-family="Helvetica,sans-Serif" font-size="10.00">NSG</text>
<polygon fill="#dda0dd" stroke="none" points="9,-49 9,-71 29,-71 29,-49 9,-49"/>
<polygon fill="none" stroke="black" points="9,-49 9,-71 29,-71 29,-49 9,-49"/>
<text text-anchor="start" x="16.22" y="-57" font-family="Helvetica,sans-Serif" font-size="10.00"> &#160;</text>
<polygon fill="none" stroke="black" points="29,-49 29,-71 122,-71 122,-49 29,-49"/>
<text text-anchor="start" x="34" y="-57" font-family="Helvetica,sans-Serif" font-size="10.00">Route Table</text>
<polygon fill="#9370db" stroke="none" points="9,-27 9,-49 29,-49 29,-27 9,-27"/>
<polygon fill="none" stroke="black" points="9,-27 9,-49 29,-49 29,-27 9,-27"/>
<text text-anchor="start" x="16.22" y="-35" font-family="Helvetica,sans-Serif" font-size="10.00"> &#160;</text>
<polygon fill="none" stroke="black" points="29,-27 29,-49 122,-49 122,-27 29,-27"/>
<text text-anchor="start" x="34" y="-35" font-family="Helvetica,sans-Serif" font-size="10.00">VPN Gateway</text>
<polygon fill="#ffa500" stroke="none" points="9,-5 9,-27 29,-27 29,-5 9,-5"/>
<polygon fill="none" stroke="black" points="9,-5 9,-27 29,-27 29,-5 9,-5"/>
<text text-anchor="start" x="16.22" y="-13" font-family="Helvetica,sans-Serif" font-size="10.00"> &#160;</text>
<polygon fill="none" stroke="black" points="29,-5 29,-27 122,-27 122,-5 29,-5"/>
<text text-anchor="start" x="34" y="-13" font-family="Helvetica,sans-Serif" font-size="10.00">Load Balancer</text>
<polygon fill="none" stroke="black" points="8,-4 8,-160 123,-160 123,-4 8,-4"/>
</g>
</g>
</svg>
