<?xml version="1.0" encoding="UTF-8" standalone="no"?>
<!DOCTYPE svg PUBLIC "-//W3C//DTD SVG 1.1//EN"
 "http://www.w3.org/Graphics/SVG/1.1/DTD/svg11.dtd">
<!-- Generated by graphviz version 12.1.2 (20240928.0832)
 -->
<!-- Title: NetworkTopology Pages: 1 -->
<svg width="590pt" height="398pt"
 viewBox="14.40 14.40 575.20 383.60" xmlns="http://www.w3.org/2000/svg" xmlns:xlink="http://www.w3.org/1999/xlink">
<g id="graph0" class="graph" transform="scale(1 1) rotate(0) translate(28.8 369.2)">
<title>NetworkTopology</title>
<polygon fill="white" stroke="none" points="-14.4,14.4 -14.4,-354.8 546.4,-354.8 546.4,14.4 -14.4,14.4"/>
<text text-anchor="middle" x="266" y="-325.6" font-family="Helvetica,sans-Serif" font-size="12.00">Azure Network Topology</text>
<text text-anchor="middle" x="266" y="-311.2" font-family="Helvetica,sans-Serif" font-size="12.00">example&#45;subscription&#45;12345 / private&#45;links&#45;demo&#45;rg</text>
<g id="clust1" class="cluster">
<title>cluster_services_vnet</title>
<polygon fill="#e6f3ff" stroke="lightblue" points="25.5,-218 25.5,-295.6 369.5,-295.6 369.5,-218 25.5,-218"/>
<text text-anchor="middle" x="197.5" y="-279" font-family="Helvetica,sans-Serif" font-weight="bold" font-size="14.00">VNet: services&#45;vnet</text>
<text text-anchor="middle" x="197.5" y="-262.2" font-family="Helvetica,sans-Serif" font-weight="bold" font-size="14.00">10.0.0.0/16</text>
</g>
<!-- vnet_0 -->
<g id="node1" class="node">
<title>vnet_0</title>
<polygon fill="#d0e7ff" stroke="black" stroke-width="2" points="105.15,-254 25.85,-254 25.85,-218 105.15,-218 105.15,-254"/>
<text text-anchor="middle" x="65.5" y="-232.4" font-family="Helvetica,sans-Serif" font-weight="bold" font-size="12.00">services&#45;vnet</text>
</g>
<!-- subnet_0_0 -->
<g id="node2" class="node">
<title>subnet_0_0</title>
<polygon fill="#ffb6c1" stroke="black" points="267.53,-254 141.47,-254 141.47,-218 267.53,-218 267.53,-254"/>
<text text-anchor="middle" x="204.5" y="-239" font-family="Helvetica,sans-Serif" font-size="10.00">private&#45;endpoints&#45;subnet</text>
<text text-anchor="middle" x="204.5" y="-227" font-family="Helvetica,sans-Serif" font-size="10.00">10.0.1.0/24</text>
</g>
<!-- subnet_0_1 -->
<g id="node3" class="node">
<title>subnet_0_1</title>
<polygon fill="#ffb6c1" stroke="black" points="369.52,-254 303.48,-254 303.48,-218 369.52,-218 369.52,-254"/>
<text text-anchor="middle" x="336.5" y="-239" font-family="Helvetica,sans-Serif" font-size="10.00">app&#45;subnet</text>
<text text-anchor="middle" x="336.5" y="-227" font-family="Helvetica,sans-Serif" font-size="10.00">10.0.2.0/24</text>
</g>
<!-- legend -->
<g id="node4" class="node">
<title>legend</title>
<polygon fill="lightgrey" stroke="none" points="131,-164 0,-164 0,0 131,0 131,-164"/>
<polygon fill="#f0f0f0" stroke="none" points="8,-4 8,-160 123,-160 123,-4 8,-4"/>
<polygon fill="#d0d0d0" stroke="none" points="9,-137 9,-159 122,-159 122,-137 9,-137"/>
<polygon fill="none" stroke="black" points="9,-137 9,-159 122,-159 122,-137 9,-137"/>
<text text-anchor="start" x="47.72" y="-146" font-family="Helvetica,sans-Serif" font-weight="bold" font-size="10.00">Legend</text>
<polygon fill="#90ee90" stroke="none" points="9,-115 9,-137 29,-137 29,-115 9,-115"/>
<polygon fill="none" stroke="black" points="9,-115 9,-137 29,-137 29,-115 9,-115"/>
<text text-anchor="start" x="16.22" y="-123" font-family="Helvetica,sans-Serif" font-size="10.00"> &#160;</text>
<polygon fill="none" stroke="black" points="29,-115 29,-137 122,-137 122,-115 29,-115"/>
<text text-anchor="start" x="33.82" y="-123" font-family="Helvetica,sans-Serif" font-size="10.00">Subnet (with NSG)</text>
<polygon fill="#ffb6c1" stroke="none" points="9,-93 9,-115 29,-115 29,-93 9,-93"/>
<polygon fill="none" stroke="black" points="9,-93 9,-115 29,-115 29,-93 9,-93"/>
<text text-anchor="start" x="16.22" y="-101" font-family="Helvetica,sans-Serif" font-size="10.00"> &#160;</text>
<polygon fill="none" stroke="black" points="29,-93 29,-115 122,-115 122,-93 29,-93"/>
<text text-anchor="start" x="34" y="-101" font-family="Helvetica,sans-Serif" font-size="10.00">Subnet (no NSG)</text>
<polygon fill="#ffe4b5" stroke="none" points="9,-71 9,-93 29,-93 29,-71 9,-71"/>
<polygon fill="none" stroke="black" points="9,-71 9,-93 29,-93 29,-71 9,-71"/>
<text text-anchor="start" x="16.22" y="-79" font-family="Helvetica,sans-Serif" font-size="10.00"> &#160;</text>
<polygon fill="none" stroke="black" points="29,-71 29,-93 122,-93 122,-71 29,-71"/>
<text text-anchor="start" x="34" y="-79" font-family="Helvetica,sans-Serif" font-size="10.00">NSG</text>
<polygon fill="#dda0dd" stroke="none" points="9,-49 9,-71 29,-71 29,-49 9,-49"/>
<polygon fill="none" stroke="black" points="9,-49 9,-71 29,-71 29,-49 9,-49"/>
<text text-anchor="start" x="16.22" y="-57" font-family="Helvetica,sans-Serif" font-size="10.00"> &#160;</text>
<polygon fill="none" stroke="black" points="29,-49 29,-71 122,-71 122,-49 29,-49"/>
<text text-anchor="start" x="34" y="-57" font-family="Helvetica,sans-Serif" font-size="10.00">Route Table</text>
<polygon fill="#9370db" stroke="none" points="9,-27 9,-49 29,-49 29,-27 9,-27"/>
<polygon fill="none" stroke="black" points="9,-27 9,-49 29,-49 29,-27 9,-27"/>
<text text-anchor="start" x="16.22" y="-35" font-family="Helvetica,sans-Serif" font-size="10.00"> &#160;</text>
<polygon fill="none" stroke="black" points="29,-27 29,-49 122,-49 122,-27 29,-27"/>
<text text-anchor="start" x="34" y="-35" font-family="Helvetica,sans-Serif" font-size="10.00">VPN Gateway</text>
<polygon fill="#ffa500" stroke="none" points="9,-5 9,-27 29,-27 29,-5 9,-5"/>
<polygon fill="none" stroke="black" points="9,-5 9,-27 29,-27 29,-5 9,-5"/>
<text text-anchor="start" x="16.22" y="-13" font-family="Helvetica,sans-Serif" font-size="10.00"> &#160;</text>
<polygon fill="none" stroke="black" points="29,-5 29,-27 122,-27 122,-5 29,-5"/>
<text text-anchor="start" x="34" y="-13" font-family="Helvetica,sans-Serif" font-size="10.00">Load Balancer</text>
<polygon fill="none" stroke="black" points="8,-4 8,-160 123,-160 123,-4 8,-4"/>
</g>
<!-- pe_table -->
<g id="node5" class="node">
<title>pe_table</title>
<polygon fill="lightgrey" stroke="none" points="532,-149 203,-149 203,-15 532,-15 532,-149"/>
<polygon fill="#ffb6c1" stroke="none" points="212,-123 212,-144 523,-144 523,-123 212,-123"/>
<polygon fill="none" stroke="black" points="212,-123 212,-144 523,-144 523,-123 212,-123"/>
<text text-anchor="start" x="320.74" y="-131.1" font-family="Helvetica,sans-Serif" font-weight="bold" font-size="11.00">Private Endpoints</text>
<polygon fill="#ffe4e1" stroke="none" points="212,-105 212,-123 293,-123 293,-105 212,-105"/>
<polygon fill="none" stroke="black" points="212,-105 212,-123 293,-123 293,-105 212,-105"/>
<text text-anchor="start" x="240.24" y="-111.9" font-family="Helvetica,sans-Serif" font-weight="bold" font-size="9.00">Name</text>
<polygon fill="#ffe4e1" stroke="none" points="293,-105 293,-123 363,-123 363,-105 293,-105"/>
<polygon fill="none" stroke="black" points="293,-105 293,-123 363,-123 363,-105 293,-105"/>
<text text-anchor="start" x="296.98" y="-111.9" font-family="Helvetica,sans-Serif" font-weight="bold" font-size="9.00">Target Service</text>
<polygon fill="#ffe4e1" stroke="none" points="363,-105 363,-123 432,-123 432,-105 363,-105"/>
<polygon fill="none" stroke="black" points="363,-105 363,-123 432,-123 432,-105 363,-105"/>
<text text-anchor="start" x="382.25" y="-111.9" font-family="Helvetica,sans-Serif" font-weight="bold" font-size="9.00">Subnet</text>
<polygon fill="#ffe4e1" stroke="none" points="432,-105 432,-123 481,-123 481,-105 432,-105"/>
<polygon fill="none" stroke="black" points="432,-105 432,-123 481,-123 481,-105 432,-105"/>
<text text-anchor="start" x="435.99" y="-111.9" font-family="Helvetica,sans-Serif" font-weight="bold" font-size="9.00">Private IP</text>
<polygon fill="#ffe4e1" stroke="none" points="481,-105 481,-123 523,-123 523,-105 481,-105"/>
<polygon fill="none" stroke="black" points="481,-105 481,-123 523,-123 523,-105 481,-105"/>
<text text-anchor="start" x="488.25" y="-111.9" font-family="Helvetica,sans-Serif" font-weight="bold" font-size="9.00">Status</text>
<polygon fill="none" stroke="black" points="212,-88 212,-105 293,-105 293,-88 212,-88"/>
<text text-anchor="start" x="216" y="-93.8" font-family="Helvetica,sans-Serif" font-size="8.00">storage&#45;account&#45;pe</text>
<polygon fill="none" stroke="black" points="293,-88 293,-105 363,-105 363,-88 293,-88"/>
<text text-anchor="start" x="297" y="-93.8" font-family="Helvetica,sans-Serif" font-size="8.00">prodstorageacct</text>
<polygon fill="none" stroke="black" points="363,-88 363,-105 432,-105 432,-88 363,-88"/>
<text text-anchor="start" x="366.81" y="-93.8" font-family="Helvetica,sans-Serif" font-size="8.00">private&#45;endpoints</text>
<polygon fill="none" stroke="black" points="432,-88 432,-105 481,-105 481,-88 432,-88"/>
<text text-anchor="start" x="436" y="-93.8" font-family="Helvetica,sans-Serif" font-size="8.00">10.0.1.10</text>
<polygon fill="none" stroke="black" points="481,-88 481,-105 523,-105 523,-88 481,-88"/>
<text text-anchor="start" x="484.88" y="-93.8" font-family="Helvetica,sans-Serif" font-size="8.00">Approved</text>
<polygon fill="none" stroke="black" points="212,-71 212,-88 293,-88 293,-71 212,-71"/>
<text text-anchor="start" x="216" y="-76.8" font-family="Helvetica,sans-Serif" font-size="8.00">sql&#45;database&#45;pe</text>
<polygon fill="none" stroke="black" points="293,-71 293,-88 363,-88 363,-71 293,-71"/>
<text text-anchor="start" x="297" y="-76.8" font-family="Helvetica,sans-Serif" font-size="8.00">prodsqlserver</text>
<polygon fill="none" stroke="black" points="363,-71 363,-88 432,-88 432,-71 363,-71"/>
<text text-anchor="start" x="366.81" y="-76.8" font-family="Helvetica,sans-Serif" font-size="8.00">private&#45;endpoints</text>
<polygon fill="none" stroke="black" points="432,-71 432,-88 481,-88 481,-71 432,-71"/>
<text text-anchor="start" x="436" y="-76.8" font-family="Helvetica,sans-Serif" font-size="8.00">10.0.1.11</text>
<polygon fill="none" stroke="black" points="481,-71 481,-88 523,-88 523,-71 481,-71"/>
<text text-anchor="start" x="484.88" y="-76.8" font-family="Helvetica,sans-Serif" font-size="8.00">Approved</text>
<polygon fill="none" stroke="black" points="212,-54 212,-71 293,-71 293,-54 212,-54"/>
<text text-anchor="start" x="216" y="-59.8" font-family="Helvetica,sans-Serif" font-size="8.00">keyvault&#45;pe</text>
<polygon fill="none" stroke="black" points="293,-54 293,-71 363,-71 363,-54 293,-54"/>
<text text-anchor="start" x="297" y="-59.8" font-family="Helvetica,sans-Serif" font-size="8.00">prodkeyvault</text>
<polygon fill="none" stroke="black" points="363,-54 363,-71 432,-71 432,-54 363,-54"/>
<text text-anchor="start" x="366.81" y="-59.8" font-family="Helvetica,sans-Serif" font-size="8.00">private&#45;endpoints</text>
<polygon fill="none" stroke="black" points="432,-54 432,-71 481,-71 481,-54 432,-54"/>
<text text-anchor="start" x="436" y="-59.8" font-family="Helvetica,sans-Serif" font-size="8.00">10.0.1.12</text>
<polygon fill="none" stroke="black" points="481,-54 481,-71 523,-71 523,-54 481,-54"/>
<text text-anchor="start" x="484.88" y="-59.8" font-family="Helvetica,sans-Serif" font-size="8.00">Approved</text>
<polygon fill="none" stroke="black" points="212,-37 212,-54 293,-54 293,-37 212,-37"/>
<text text-anchor="start" x="216" y="-42.8" font-family="Helvetica,sans-Serif" font-size="8.00">cosmosdb&#45;pe</text>
<polygon fill="none" stroke="black" points="293,-37 293,-54 363,-54 363,-37 293,-37"/>
<text text-anchor="start" x="297" y="-42.8" font-family="Helvetica,sans-Serif" font-size="8.00">prodcosmosdb</text>
<polygon fill="none" stroke="black" points="363,-37 363,-54 432,-54 432,-37 363,-37"/>
<text text-anchor="start" x="366.81" y="-42.8" font-family="Helvetica,sans-Serif" font-size="8.00">private&#45;endpoints</text>
<polygon fill="none" stroke="black" points="432,-37 432,-54 481,-54 481,-37 432,-37"/>
<text text-anchor="start" x="436" y="-42.8" font-family="Helvetica,sans-Serif" font-size="8.00">10.0.1.13</text>
<polygon fill="none" stroke="black" points="481,-37 481,-54 523,-54 523,-37 481,-37"/>
<text text-anchor="start" x="484.88" y="-42.8" font-family="Helvetica,sans-Serif" font-size="8.00">Approved</text>
<polygon fill="none" stroke="black" points="212,-20 212,-37 293,-37 293,-20 212,-20"/>
<text text-anchor="start" x="215.82" y="-25.8" font-family="Helvetica,sans-Serif" font-size="8.00">container&#45;registry&#45;pe</text>
<polygon fill="none" stroke="black" points="293,-20 293,-37 363,-37 363,-20 293,-20"/>
<text text-anchor="start" x="297" y="-25.8" font-family="Helvetica,sans-Serif" font-size="8.00">prodacr</text>
<polygon fill="none" stroke="black" points="363,-20 363,-37 432,-37 432,-20 363,-20"/>
<text text-anchor="start" x="366.81" y="-25.8" font-family="Helvetica,sans-Serif" font-size="8.00">private&#45;endpoints</text>
<polygon fill="none" stroke="black" points="432,-20 432,-37 481,-37 481,-20 432,-20"/>
<text text-anchor="start" x="436" y="-25.8" font-family="Helvetica,sans-Serif" font-size="8.00">10.0.1.14</text>
<polygon fill="none" stroke="black" points="481,-20 481,-37 523,-37 523,-20 481,-20"/>
<text text-anchor="start" x="484.88" y="-25.8" font-family="Helvetica,sans-Serif" font-size="8.00">Approved</text>
<polygon fill="none" stroke="black" points="211,-19 211,-145 524,-145 524,-19 211,-19"/>
</g>
<!-- legend&#45;&gt;pe_table -->
</g>
</svg>
