<?xml version="1.0" encoding="UTF-8" standalone="no"?>
<!DOCTYPE svg PUBLIC "-//W3C//DTD SVG 1.1//EN"
 "http://www.w3.org/Graphics/SVG/1.1/DTD/svg11.dtd">
<!-- Generated by graphviz version 12.1.2 (20240928.0832)
 -->
<!-- Title: NetworkTopology Pages: 1 -->
<svg width="932pt" height="552pt"
 viewBox="14.40 14.40 917.91 537.20" xmlns="http://www.w3.org/2000/svg" xmlns:xlink="http://www.w3.org/1999/xlink">
<g id="graph0" class="graph" transform="scale(1 1) rotate(0) translate(28.8 522.8)">
<title>NetworkTopology</title>
<polygon fill="white" stroke="none" points="-14.4,14.4 -14.4,-508.4 889.11,-508.4 889.11,14.4 -14.4,14.4"/>
<text text-anchor="middle" x="437.36" y="-479.2" font-family="Helvetica,sans-Serif" font-size="12.00">Azure Network Topology</text>
<text text-anchor="middle" x="437.36" y="-464.8" font-family="Helvetica,sans-Serif" font-size="12.00">example&#45;subscription&#45;12345 / example&#45;hub&#45;spoke&#45;rg</text>
<g id="clust1" class="cluster">
<title>cluster_hub_vnet</title>
<polygon fill="#e6f3ff" stroke="lightblue" points="63.71,-191 63.71,-310.2 367.71,-310.2 367.71,-191 63.71,-191"/>
<text text-anchor="middle" x="215.71" y="-293.6" font-family="Helvetica,sans-Serif" font-weight="bold" font-size="14.00">VNet: hub&#45;vnet</text>
<text text-anchor="middle" x="215.71" y="-276.8" font-family="Helvetica,sans-Serif" font-weight="bold" font-size="14.00">10.0.0.0/16</text>
</g>
<g id="clust2" class="cluster">
<title>cluster_prod_vnet</title>
<polygon fill="#e6f3ff" stroke="lightblue" points="404.71,-191 404.71,-310.2 670.71,-310.2 670.71,-191 404.71,-191"/>
<text text-anchor="middle" x="537.71" y="-293.6" font-family="Helvetica,sans-Serif" font-weight="bold" font-size="14.00">VNet: prod&#45;vnet</text>
<text text-anchor="middle" x="537.71" y="-276.8" font-family="Helvetica,sans-Serif" font-weight="bold" font-size="14.00">10.1.0.0/16</text>
</g>
<g id="clust3" class="cluster">
<title>cluster_dev_vnet</title>
<polygon fill="#e6f3ff" stroke="lightblue" points="706.71,-191 706.71,-310.2 866.71,-310.2 866.71,-191 706.71,-191"/>
<text text-anchor="middle" x="786.71" y="-293.6" font-family="Helvetica,sans-Serif" font-weight="bold" font-size="14.00">VNet: dev&#45;vnet</text>
<text text-anchor="middle" x="786.71" y="-276.8" font-family="Helvetica,sans-Serif" font-weight="bold" font-size="14.00">10.2.0.0/16</text>
</g>
<!-- vnet_0 -->
<g id="node1" class="node">
<title>vnet_0</title>
<polygon fill="#d0e7ff" stroke="black" stroke-width="2" points="122.04,-227 63.39,-227 63.39,-191 122.04,-191 122.04,-227"/>
<text text-anchor="middle" x="92.71" y="-205.4" font-family="Helvetica,sans-Serif" font-weight="bold" font-size="12.00">hub&#45;vnet</text>
</g>
<!-- vnet_1 -->
<g id="node4" class="node">
<title>vnet_1</title>
<polygon fill="#d0e7ff" stroke="black" stroke-width="2" points="467.04,-227 404.39,-227 404.39,-191 467.04,-191 467.04,-227"/>
<text text-anchor="middle" x="435.71" y="-205.4" font-family="Helvetica,sans-Serif" font-weight="bold" font-size="12.00">prod&#45;vnet</text>
</g>
<!-- vnet_0&#45;&gt;vnet_1 -->
<g id="edge1" class="edge">
<title>vnet_0&#45;&gt;vnet_1</title>
<path fill="none" stroke="green" stroke-dasharray="5,2" d="M102.49,-182.85C102.49,-182.85 102.49,-182 102.49,-182 102.49,-182 435.71,-182 435.71,-182 435.71,-182 435.71,-182.85 435.71,-182.85"/>
<polygon fill="green" stroke="green" points="98.99,-179.03 102.49,-189.03 105.99,-179.03 98.99,-179.03"/>
<polygon fill="green" stroke="green" points="432.21,-179.03 435.71,-189.03 439.21,-179.03 432.21,-179.03"/>
<text text-anchor="middle" x="236.71" y="-333.2" font-family="Helvetica,sans-Serif" font-size="10.00">peering</text>
<text text-anchor="middle" x="236.71" y="-321.2" font-family="Helvetica,sans-Serif" font-size="10.00">Connected</text>
</g>
<!-- vnet_2 -->
<g id="node7" class="node">
<title>vnet_2</title>
<polygon fill="#d0e7ff" stroke="black" stroke-width="2" points="764.71,-227 706.72,-227 706.72,-191 764.71,-191 764.71,-227"/>
<text text-anchor="middle" x="735.71" y="-205.4" font-family="Helvetica,sans-Serif" font-weight="bold" font-size="12.00">dev&#45;vnet</text>
</g>
<!-- vnet_0&#45;&gt;vnet_2 -->
<g id="edge2" class="edge">
<title>vnet_0&#45;&gt;vnet_2</title>
<path fill="none" stroke="green" stroke-dasharray="5,2" d="M82.94,-179.06C82.94,-179.06 82.94,-173 82.94,-173 82.94,-173 735.71,-173 735.71,-173 735.71,-173 735.71,-179.06 735.71,-179.06"/>
<polygon fill="green" stroke="green" points="79.44,-179.06 82.94,-189.06 86.44,-179.06 79.44,-179.06"/>
<polygon fill="green" stroke="green" points="732.21,-179.06 735.71,-189.06 739.21,-179.06 732.21,-179.06"/>
<text text-anchor="middle" x="289.71" y="-333.2" font-family="Helvetica,sans-Serif" font-size="10.00">peering</text>
<text text-anchor="middle" x="289.71" y="-321.2" font-family="Helvetica,sans-Serif" font-size="10.00">Connected</text>
</g>
<!-- subnet_0_0 -->
<g id="node2" class="node">
<title>subnet_0_0</title>
<polygon fill="#ffb6c1" stroke="black" points="245.29,-227 158.14,-227 158.14,-191 245.29,-191 245.29,-227"/>
<text text-anchor="middle" x="201.71" y="-212" font-family="Helvetica,sans-Serif" font-size="10.00">GatewaySubnet</text>
<text text-anchor="middle" x="201.71" y="-200" font-family="Helvetica,sans-Serif" font-size="10.00">10.0.0.0/27</text>
</g>
<!-- subnet_0_1 -->
<g id="node3" class="node">
<title>subnet_0_1</title>
<polygon fill="#ffb6c1" stroke="black" points="368,-227 281.42,-227 281.42,-191 368,-191 368,-227"/>
<text text-anchor="middle" x="324.71" y="-212" font-family="Helvetica,sans-Serif" font-size="10.00">shared&#45;services</text>
<text text-anchor="middle" x="324.71" y="-200" font-family="Helvetica,sans-Serif" font-size="10.00">10.0.1.0/24</text>
</g>
<!-- vnet_1&#45;&gt;vnet_0 -->
<g id="edge3" class="edge">
<title>vnet_1&#45;&gt;vnet_0</title>
<text text-anchor="middle" x="279" y="-333.2" font-family="Helvetica,sans-Serif" font-size="10.00">peering</text>
<text text-anchor="middle" x="279" y="-321.2" font-family="Helvetica,sans-Serif" font-size="10.00">Connected</text>
</g>
<!-- subnet_1_0 -->
<g id="node5" class="node">
<title>subnet_1_0</title>
<polygon fill="#ffb6c1" stroke="black" points="568.74,-227 502.69,-227 502.69,-191 568.74,-191 568.74,-227"/>
<text text-anchor="middle" x="535.71" y="-212" font-family="Helvetica,sans-Serif" font-size="10.00">web&#45;tier</text>
<text text-anchor="middle" x="535.71" y="-200" font-family="Helvetica,sans-Serif" font-size="10.00">10.1.1.0/24</text>
</g>
<!-- subnet_1_1 -->
<g id="node6" class="node">
<title>subnet_1_1</title>
<polygon fill="#ffb6c1" stroke="black" points="670.74,-227 604.69,-227 604.69,-191 670.74,-191 670.74,-227"/>
<text text-anchor="middle" x="637.71" y="-212" font-family="Helvetica,sans-Serif" font-size="10.00">app&#45;tier</text>
<text text-anchor="middle" x="637.71" y="-200" font-family="Helvetica,sans-Serif" font-size="10.00">10.1.2.0/24</text>
</g>
<!-- vnet_2&#45;&gt;vnet_0 -->
<g id="edge4" class="edge">
<title>vnet_2&#45;&gt;vnet_0</title>
<text text-anchor="middle" x="120" y="-333.2" font-family="Helvetica,sans-Serif" font-size="10.00">peering</text>
<text text-anchor="middle" x="120" y="-321.2" font-family="Helvetica,sans-Serif" font-size="10.00">Connected</text>
</g>
<!-- subnet_2_0 -->
<g id="node8" class="node">
<title>subnet_2_0</title>
<polygon fill="#ffb6c1" stroke="black" points="866.74,-227 800.69,-227 800.69,-191 866.74,-191 866.74,-227"/>
<text text-anchor="middle" x="833.71" y="-212" font-family="Helvetica,sans-Serif" font-size="10.00">dev&#45;subnet</text>
<text text-anchor="middle" x="833.71" y="-200" font-family="Helvetica,sans-Serif" font-size="10.00">10.2.1.0/24</text>
</g>
<!-- vpn_0 -->
<g id="node9" class="node">
<title>vpn_0</title>
<polygon fill="#9370db" stroke="black" points="92.71,-457.2 0,-413.2 92.71,-369.2 185.43,-413.2 92.71,-457.2"/>
<text text-anchor="middle" x="92.71" y="-422.2" font-family="Helvetica,sans-Serif" font-size="10.00">VPN GW</text>
<text text-anchor="middle" x="92.71" y="-410.2" font-family="Helvetica,sans-Serif" font-size="10.00">hub&#45;vpn&#45;gateway</text>
<text text-anchor="middle" x="92.71" y="-398.2" font-family="Helvetica,sans-Serif" font-size="10.00">VpnGw1</text>
</g>
<!-- vpn_0&#45;&gt;vnet_0 -->
<g id="edge5" class="edge">
<title>vpn_0&#45;&gt;vnet_0</title>
<path fill="none" stroke="purple" stroke-width="2" d="M92.71,-368.89C92.71,-368.89 92.71,-238.53 92.71,-238.53"/>
<polygon fill="purple" stroke="purple" stroke-width="2" points="96.21,-240.04 92.71,-230.04 89.21,-240.04 96.21,-240.04"/>
<text text-anchor="middle" x="111.34" y="-327.2" font-family="Helvetica,sans-Serif" font-size="10.00">gateway</text>
</g>
<!-- legend -->
<g id="node10" class="node">
<title>legend</title>
<polygon fill="lightgrey" stroke="none" points="158.21,-164 27.21,-164 27.21,0 158.21,0 158.21,-164"/>
<polygon fill="#f0f0f0" stroke="none" points="35.21,-4 35.21,-160 150.21,-160 150.21,-4 35.21,-4"/>
<polygon fill="#d0d0d0" stroke="none" points="36.21,-137 36.21,-159 149.21,-159 149.21,-137 36.21,-137"/>
<polygon fill="none" stroke="black" points="36.21,-137 36.21,-159 149.21,-159 149.21,-137 36.21,-137"/>
<text text-anchor="start" x="74.94" y="-146" font-family="Helvetica,sans-Serif" font-weight="bold" font-size="10.00">Legend</text>
<polygon fill="#90ee90" stroke="none" points="36.21,-115 36.21,-137 56.21,-137 56.21,-115 36.21,-115"/>
<polygon fill="none" stroke="black" points="36.21,-115 36.21,-137 56.21,-137 56.21,-115 36.21,-115"/>
<text text-anchor="start" x="43.44" y="-123" font-family="Helvetica,sans-Serif" font-size="10.00"> &#160;</text>
<polygon fill="none" stroke="black" points="56.21,-115 56.21,-137 149.21,-137 149.21,-115 56.21,-115"/>
<text text-anchor="start" x="61.03" y="-123" font-family="Helvetica,sans-Serif" font-size="10.00">Subnet (with NSG)</text>
<polygon fill="#ffb6c1" stroke="none" points="36.21,-93 36.21,-115 56.21,-115 56.21,-93 36.21,-93"/>
<polygon fill="none" stroke="black" points="36.21,-93 36.21,-115 56.21,-115 56.21,-93 36.21,-93"/>
<text text-anchor="start" x="43.44" y="-101" font-family="Helvetica,sans-Serif" font-size="10.00"> &#160;</text>
<polygon fill="none" stroke="black" points="56.21,-93 56.21,-115 149.21,-115 149.21,-93 56.21,-93"/>
<text text-anchor="start" x="61.21" y="-101" font-family="Helvetica,sans-Serif" font-size="10.00">Subnet (no NSG)</text>
<polygon fill="#ffe4b5" stroke="none" points="36.21,-71 36.21,-93 56.21,-93 56.21,-71 36.21,-71"/>
<polygon fill="none" stroke="black" points="36.21,-71 36.21,-93 56.21,-93 56.21,-71 36.21,-71"/>
<text text-anchor="start" x="43.44" y="-79" font-family="Helvetica,sans-Serif" font-size="10.00"> &#160;</text>
<polygon fill="none" stroke="black" points="56.21,-71 56.21,-93 149.21,-93 149.21,-71 56.21,-71"/>
<text text-anchor="start" x="61.21" y="-79" font-family="Helvetica,sans-Serif" font-size="10.00">NSG</text>
<polygon fill="#dda0dd" stroke="none" points="36.21,-49 36.21,-71 56.21,-71 56.21,-49 36.21,-49"/>
<polygon fill="none" stroke="black" points="36.21,-49 36.21,-71 56.21,-71 56.21,-49 36.21,-49"/>
<text text-anchor="start" x="43.44" y="-57" font-family="Helvetica,sans-Serif" font-size="10.00"> &#160;</text>
<polygon fill="none" stroke="black" points="56.21,-49 56.21,-71 149.21,-71 149.21,-49 56.21,-49"/>
<text text-anchor="start" x="61.21" y="-57" font-family="Helvetica,sans-Serif" font-size="10.00">Route Table</text>
<polygon fill="#9370db" stroke="none" points="36.21,-27 36.21,-49 56.21,-49 56.21,-27 36.21,-27"/>
<polygon fill="none" stroke="black" points="36.21,-27 36.21,-49 56.21,-49 56.21,-27 36.21,-27"/>
<text text-anchor="start" x="43.44" y="-35" font-family="Helvetica,sans-Serif" font-size="10.00"> &#160;</text>
<polygon fill="none" stroke="black" points="56.21,-27 56.21,-49 149.21,-49 149.21,-27 56.21,-27"/>
<text text-anchor="start" x="61.21" y="-35" font-family="Helvetica,sans-Serif" font-size="10.00">VPN Gateway</text>
<polygon fill="#ffa500" stroke="none" points="36.21,-5 36.21,-27 56.21,-27 56.21,-5 36.21,-5"/>
<polygon fill="none" stroke="black" points="36.21,-5 36.21,-27 56.21,-27 56.21,-5 36.21,-5"/>
<text text-anchor="start" x="43.44" y="-13" font-family="Helvetica,sans-Serif" font-size="10.00"> &#160;</text>
<polygon fill="none" stroke="black" points="56.21,-5 56.21,-27 149.21,-27 149.21,-5 56.21,-5"/>
<text text-anchor="start" x="61.21" y="-13" font-family="Helvetica,sans-Serif" font-size="10.00">Load Balancer</text>
<polygon fill="none" stroke="black" points="35.21,-4 35.21,-160 150.21,-160 150.21,-4 35.21,-4"/>
</g>
</g>
</svg>
