<?xml version="1.0" encoding="UTF-8" standalone="no"?>
<!DOCTYPE svg PUBLIC "-//W3C//DTD SVG 1.1//EN"
 "http://www.w3.org/Graphics/SVG/1.1/DTD/svg11.dtd">
<!-- Generated by graphviz version 12.1.2 (20240928.0832)
 -->
<!-- Title: NetworkTopology Pages: 1 -->
<svg width="582pt" height="589pt"
 viewBox="14.40 14.40 567.20 574.58" xmlns="http://www.w3.org/2000/svg" xmlns:xlink="http://www.w3.org/1999/xlink">
<g id="graph0" class="graph" transform="scale(1 1) rotate(0) translate(28.8 560.18)">
<title>NetworkTopology</title>
<polygon fill="white" stroke="none" points="-14.4,14.4 -14.4,-545.78 538.4,-545.78 538.4,14.4 -14.4,14.4"/>
<text text-anchor="middle" x="262" y="-516.58" font-family="Helvetica,sans-Serif" font-size="12.00">Azure Network Topology</text>
<text text-anchor="middle" x="262" y="-502.18" font-family="Helvetica,sans-Serif" font-size="12.00">example&#45;subscription&#45;12345 / subnet&#45;details&#45;demo&#45;rg</text>
<g id="clust1" class="cluster">
<title>cluster_app_vnet</title>
<polygon fill="#e6f3ff" stroke="lightblue" points="8,-321 8,-398.6 516,-398.6 516,-321 8,-321"/>
<text text-anchor="middle" x="262" y="-382" font-family="Helvetica,sans-Serif" font-weight="bold" font-size="14.00">VNet: app&#45;vnet</text>
<text text-anchor="middle" x="262" y="-365.2" font-family="Helvetica,sans-Serif" font-weight="bold" font-size="14.00">10.0.0.0/16</text>
</g>
<!-- vnet_0 -->
<g id="node1" class="node">
<title>vnet_0</title>
<polygon fill="#d0e7ff" stroke="black" stroke-width="2" points="65.99,-357 8.01,-357 8.01,-321 65.99,-321 65.99,-357"/>
<text text-anchor="middle" x="37" y="-335.4" font-family="Helvetica,sans-Serif" font-weight="bold" font-size="12.00">app&#45;vnet</text>
</g>
<!-- subnet_0_0 -->
<g id="node2" class="node">
<title>subnet_0_0</title>
<polygon fill="#90ee90" stroke="black" points="168.02,-357 101.98,-357 101.98,-321 168.02,-321 168.02,-357"/>
<text text-anchor="middle" x="135" y="-342" font-family="Helvetica,sans-Serif" font-size="10.00">frontend</text>
<text text-anchor="middle" x="135" y="-330" font-family="Helvetica,sans-Serif" font-size="10.00">10.0.1.0/24</text>
</g>
<!-- rt_firewall_rt -->
<g id="node8" class="node">
<title>rt_firewall_rt</title>
<polygon fill="#dda0dd" stroke="black" points="258.07,-255 141.83,-255 111.93,-191 228.17,-191 258.07,-255"/>
<text text-anchor="middle" x="185" y="-226" font-family="Helvetica,sans-Serif" font-size="10.00">Route Table</text>
<text text-anchor="middle" x="185" y="-214" font-family="Helvetica,sans-Serif" font-size="10.00">firewall&#45;rt</text>
</g>
<!-- subnet_0_0&#45;&gt;rt_firewall_rt -->
<g id="edge2" class="edge">
<title>subnet_0_0&#45;&gt;rt_firewall_rt</title>
<path fill="none" stroke="purple" stroke-dasharray="1,5" d="M139.98,-320.62C139.98,-320.62 139.98,-263.65 139.98,-263.65"/>
<polygon fill="purple" stroke="purple" points="143.48,-263.65 139.98,-253.65 136.48,-263.65 143.48,-263.65"/>
<text text-anchor="middle" x="164.9" y="-285" font-family="Helvetica,sans-Serif" font-size="10.00">routes</text>
</g>
<!-- subnet_0_1 -->
<g id="node3" class="node">
<title>subnet_0_1</title>
<polygon fill="#90ee90" stroke="black" points="270.02,-357 203.98,-357 203.98,-321 270.02,-321 270.02,-357"/>
<text text-anchor="middle" x="237" y="-342" font-family="Helvetica,sans-Serif" font-size="10.00">backend</text>
<text text-anchor="middle" x="237" y="-330" font-family="Helvetica,sans-Serif" font-size="10.00">10.0.2.0/24</text>
</g>
<!-- subnet_0_1&#45;&gt;rt_firewall_rt -->
<g id="edge4" class="edge">
<title>subnet_0_1&#45;&gt;rt_firewall_rt</title>
<path fill="none" stroke="purple" stroke-dasharray="1,5" d="M231.02,-320.62C231.02,-320.62 231.02,-266.84 231.02,-266.84"/>
<polygon fill="purple" stroke="purple" points="234.52,-266.84 231.02,-256.84 227.52,-266.84 234.52,-266.84"/>
<text text-anchor="middle" x="241.9" y="-285" font-family="Helvetica,sans-Serif" font-size="10.00">routes</text>
</g>
<!-- subnet_0_2 -->
<g id="node4" class="node">
<title>subnet_0_2</title>
<polygon fill="#90ee90" stroke="black" points="372.02,-357 305.98,-357 305.98,-321 372.02,-321 372.02,-357"/>
<text text-anchor="middle" x="339" y="-342" font-family="Helvetica,sans-Serif" font-size="10.00">database</text>
<text text-anchor="middle" x="339" y="-330" font-family="Helvetica,sans-Serif" font-size="10.00">10.0.3.0/24</text>
</g>
<!-- subnet_0_3 -->
<g id="node5" class="node">
<title>subnet_0_3</title>
<polygon fill="#ffb6c1" stroke="black" points="515.59,-357 408.41,-357 408.41,-321 515.59,-321 515.59,-357"/>
<text text-anchor="middle" x="462" y="-342" font-family="Helvetica,sans-Serif" font-size="10.00">AzureBastionSubnet</text>
<text text-anchor="middle" x="462" y="-330" font-family="Helvetica,sans-Serif" font-size="10.00">10.0.255.0/27</text>
</g>
<!-- nsg_web_nsg -->
<g id="node6" class="node">
<title>nsg_web_nsg</title>
<polygon fill="#ffe4b5" stroke="black" points="216.18,-459.95 216.18,-480.24 192.06,-494.58 157.94,-494.58 133.82,-480.24 133.82,-459.95 157.94,-445.6 192.06,-445.6 216.18,-459.95"/>
<text text-anchor="middle" x="175" y="-473.09" font-family="Helvetica,sans-Serif" font-size="10.00">NSG</text>
<text text-anchor="middle" x="175" y="-461.09" font-family="Helvetica,sans-Serif" font-size="10.00">web&#45;nsg</text>
</g>
<!-- nsg_web_nsg&#45;&gt;subnet_0_0 -->
<g id="edge1" class="edge">
<title>nsg_web_nsg&#45;&gt;subnet_0_0</title>
<path fill="none" stroke="orange" stroke-dasharray="5,2" d="M150.92,-449.32C150.92,-449.32 150.92,-368.66 150.92,-368.66"/>
<polygon fill="orange" stroke="orange" points="154.42,-368.66 150.92,-358.66 147.42,-368.66 154.42,-368.66"/>
<text text-anchor="middle" x="159.79" y="-409.6" font-family="Helvetica,sans-Serif" font-size="10.00">protects</text>
</g>
<!-- nsg_web_nsg&#45;&gt;subnet_0_1 -->
<g id="edge3" class="edge">
<title>nsg_web_nsg&#45;&gt;subnet_0_1</title>
<path fill="none" stroke="orange" stroke-dasharray="5,2" d="M210.08,-455.81C210.08,-455.81 210.08,-368.97 210.08,-368.97"/>
<polygon fill="orange" stroke="orange" points="213.58,-368.97 210.08,-358.97 206.58,-368.97 213.58,-368.97"/>
<text text-anchor="middle" x="242.79" y="-409.6" font-family="Helvetica,sans-Serif" font-size="10.00">protects</text>
</g>
<!-- nsg_db_nsg -->
<g id="node7" class="node">
<title>nsg_db_nsg</title>
<polygon fill="#ffe4b5" stroke="black" points="374.65,-459.95 374.65,-480.24 353.77,-494.58 324.23,-494.58 303.35,-480.24 303.35,-459.95 324.23,-445.6 353.77,-445.6 374.65,-459.95"/>
<text text-anchor="middle" x="339" y="-473.09" font-family="Helvetica,sans-Serif" font-size="10.00">NSG</text>
<text text-anchor="middle" x="339" y="-461.09" font-family="Helvetica,sans-Serif" font-size="10.00">db&#45;nsg</text>
</g>
<!-- nsg_db_nsg&#45;&gt;subnet_0_2 -->
<g id="edge5" class="edge">
<title>nsg_db_nsg&#45;&gt;subnet_0_2</title>
<path fill="none" stroke="orange" stroke-dasharray="5,2" d="M339,-445.13C339,-445.13 339,-368.64 339,-368.64"/>
<polygon fill="orange" stroke="orange" points="342.5,-368.64 339,-358.64 335.5,-368.64 342.5,-368.64"/>
<text text-anchor="middle" x="356.79" y="-409.6" font-family="Helvetica,sans-Serif" font-size="10.00">protects</text>
</g>
<!-- legend -->
<g id="node9" class="node">
<title>legend</title>
<polygon fill="lightgrey" stroke="none" points="250.5,-164 119.5,-164 119.5,0 250.5,0 250.5,-164"/>
<polygon fill="#f0f0f0" stroke="none" points="127.5,-4 127.5,-160 242.5,-160 242.5,-4 127.5,-4"/>
<polygon fill="#d0d0d0" stroke="none" points="128.5,-137 128.5,-159 241.5,-159 241.5,-137 128.5,-137"/>
<polygon fill="none" stroke="black" points="128.5,-137 128.5,-159 241.5,-159 241.5,-137 128.5,-137"/>
<text text-anchor="start" x="167.22" y="-146" font-family="Helvetica,sans-Serif" font-weight="bold" font-size="10.00">Legend</text>
<polygon fill="#90ee90" stroke="none" points="128.5,-115 128.5,-137 148.5,-137 148.5,-115 128.5,-115"/>
<polygon fill="none" stroke="black" points="128.5,-115 128.5,-137 148.5,-137 148.5,-115 128.5,-115"/>
<text text-anchor="start" x="135.72" y="-123" font-family="Helvetica,sans-Serif" font-size="10.00"> &#160;</text>
<polygon fill="none" stroke="black" points="148.5,-115 148.5,-137 241.5,-137 241.5,-115 148.5,-115"/>
<text text-anchor="start" x="153.32" y="-123" font-family="Helvetica,sans-Serif" font-size="10.00">Subnet (with NSG)</text>
<polygon fill="#ffb6c1" stroke="none" points="128.5,-93 128.5,-115 148.5,-115 148.5,-93 128.5,-93"/>
<polygon fill="none" stroke="black" points="128.5,-93 128.5,-115 148.5,-115 148.5,-93 128.5,-93"/>
<text text-anchor="start" x="135.72" y="-101" font-family="Helvetica,sans-Serif" font-size="10.00"> &#160;</text>
<polygon fill="none" stroke="black" points="148.5,-93 148.5,-115 241.5,-115 241.5,-93 148.5,-93"/>
<text text-anchor="start" x="153.5" y="-101" font-family="Helvetica,sans-Serif" font-size="10.00">Subnet (no NSG)</text>
<polygon fill="#ffe4b5" stroke="none" points="128.5,-71 128.5,-93 148.5,-93 148.5,-71 128.5,-71"/>
<polygon fill="none" stroke="black" points="128.5,-71 128.5,-93 148.5,-93 148.5,-71 128.5,-71"/>
<text text-anchor="start" x="135.72" y="-79" font-family="Helvetica,sans-Serif" font-size="10.00"> &#160;</text>
<polygon fill="none" stroke="black" points="148.5,-71 148.5,-93 241.5,-93 241.5,-71 148.5,-71"/>
<text text-anchor="start" x="153.5" y="-79" font-family="Helvetica,sans-Serif" font-size="10.00">NSG</text>
<polygon fill="#dda0dd" stroke="none" points="128.5,-49 128.5,-71 148.5,-71 148.5,-49 128.5,-49"/>
<polygon fill="none" stroke="black" points="128.5,-49 128.5,-71 148.5,-71 148.5,-49 128.5,-49"/>
<text text-anchor="start" x="135.72" y="-57" font-family="Helvetica,sans-Serif" font-size="10.00"> &#160;</text>
<polygon fill="none" stroke="black" points="148.5,-49 148.5,-71 241.5,-71 241.5,-49 148.5,-49"/>
<text text-anchor="start" x="153.5" y="-57" font-family="Helvetica,sans-Serif" font-size="10.00">Route Table</text>
<polygon fill="#9370db" stroke="none" points="128.5,-27 128.5,-49 148.5,-49 148.5,-27 128.5,-27"/>
<polygon fill="none" stroke="black" points="128.5,-27 128.5,-49 148.5,-49 148.5,-27 128.5,-27"/>
<text text-anchor="start" x="135.72" y="-35" font-family="Helvetica,sans-Serif" font-size="10.00"> &#160;</text>
<polygon fill="none" stroke="black" points="148.5,-27 148.5,-49 241.5,-49 241.5,-27 148.5,-27"/>
<text text-anchor="start" x="153.5" y="-35" font-family="Helvetica,sans-Serif" font-size="10.00">VPN Gateway</text>
<polygon fill="#ffa500" stroke="none" points="128.5,-5 128.5,-27 148.5,-27 148.5,-5 128.5,-5"/>
<polygon fill="none" stroke="black" points="128.5,-5 128.5,-27 148.5,-27 148.5,-5 128.5,-5"/>
<text text-anchor="start" x="135.72" y="-13" font-family="Helvetica,sans-Serif" font-size="10.00"> &#160;</text>
<polygon fill="none" stroke="black" points="148.5,-5 148.5,-27 241.5,-27 241.5,-5 148.5,-5"/>
<text text-anchor="start" x="153.5" y="-13" font-family="Helvetica,sans-Serif" font-size="10.00">Load Balancer</text>
<polygon fill="none" stroke="black" points="127.5,-4 127.5,-160 242.5,-160 242.5,-4 127.5,-4"/>
</g>
</g>
</svg>
